# xmcd
#
# Track frame offsets:
#	150
#	17400
#	41570
#	64421
#	98692
#	114320
#	141720
#	163948
#	186356
#	216946
#	234121
#
# Disc length: 3393 seconds
#
# Revision: 0
# Processed by: cddbd v1.4PL0 Copyright (c) Steve Scherf et al.
# Submitted via: dBpowerAMP V4.0
#
DISCID=9a0d3f0b
DTITLE=Stalos and Oren Hen - The Third
DYEAR=2002
DGENRE=Soul
TTITLE0=It's make me nothing
TTITLE1=Forever Love
TTITLE2=Frenzied Outside
TTITLE3=On your threshold
TTITLE4=Beautiful Days
TTITLE5=Yochi Yochi
TTITLE6=Loking for her
TTITLE7=Far away from me
TTITLE8=She doesn't know
TTITLE9=Mami Mami
TTITLE10=You are like a fire
EXTD=
EXTT0=
EXTT1=
EXTT2=
EXTT3=
EXTT4=
EXTT5=
EXTT6=
EXTT7=
EXTT8=
EXTT9=
EXTT10=
PLAYORDER=
